<?xml version="1.0" standalone="no"?>
<!DOCTYPE svg PUBLIC "-//W3C//DTD SVG 20010904//EN"
 "http://www.w3.org/TR/2001/REC-SVG-20010904/DTD/svg10.dtd">
<svg version="1.0" xmlns="http://www.w3.org/2000/svg"
 width="444.000000pt" height="444.000000pt" viewBox="0 0 444.000000 444.000000"
 preserveAspectRatio="xMidYMid meet">
<metadata>
Created by potrace 1.11, written by Peter Selinger 2001-2013
</metadata>
<g transform="translate(0.000000,444.000000) scale(0.100000,-0.100000)"
fill="#000000" stroke="none">
<path d="M2069 4405 c-2 -2 -38 -6 -80 -9 -42 -4 -87 -9 -100 -11 -13 -3 -37
-8 -54 -11 -16 -3 -34 -7 -40 -8 -5 -1 -37 -8 -70 -15 -82 -18 -78 -17 -95
-23 -8 -4 -64 -23 -125 -43 -120 -40 -345 -146 -426 -201 -28 -19 -53 -34 -56
-34 -5 0 -187 -135 -218 -162 -98 -86 -238 -233 -303 -318 -23 -30 -48 -62
-56 -70 -21 -24 -106 -159 -106 -170 0 -6 -4 -10 -8 -10 -4 0 -15 -15 -23 -32
-9 -18 -32 -64 -51 -103 -70 -139 -163 -409 -183 -530 -3 -16 -8 -43 -11 -58
-3 -16 -7 -41 -9 -55 -2 -15 -7 -56 -12 -92 -10 -83 -10 -374 0 -465 28 -261
104 -520 222 -755 26 -52 54 -103 63 -112 8 -10 12 -18 9 -18 -8 0 94 -154
105 -158 4 -2 8 -9 8 -15 0 -7 18 -32 40 -56 22 -25 40 -47 40 -51 0 -19 239
-252 329 -320 18 -14 38 -30 45 -37 42 -39 251 -165 361 -218 189 -92 445
-175 590 -191 28 -3 53 -8 56 -9 40 -25 585 -26 628 -1 3 2 29 6 56 10 28 3
59 8 70 11 11 2 40 9 65 16 25 6 52 12 60 14 30 7 156 46 175 55 11 5 31 12
45 15 31 9 333 155 340 165 3 4 24 18 48 30 23 12 42 26 42 31 0 5 5 9 11 9
10 0 133 90 204 149 49 41 275 273 275 282 0 4 10 18 23 31 13 13 32 38 42 56
11 17 23 32 27 32 4 0 8 4 8 10 0 5 15 31 34 57 18 27 44 68 57 93 13 25 26
47 29 50 9 8 80 159 102 215 32 80 96 271 102 302 3 15 14 71 25 123 27 130
36 237 36 420 0 141 -6 245 -20 325 -5 29 -17 95 -20 105 0 3 -4 23 -9 45 -21
108 -83 291 -144 427 -57 128 -164 312 -220 379 -6 8 -38 48 -70 89 -54 70
-233 260 -245 260 -3 0 -29 22 -58 50 -30 27 -59 50 -65 50 -7 0 -14 7 -18 15
-3 8 -12 15 -20 15 -7 0 -16 7 -20 15 -3 8 -12 15 -21 15 -8 0 -15 3 -15 8 0
4 -23 21 -51 37 -28 17 -67 40 -87 52 -72 44 -152 83 -152 76 0 -5 -4 -3 -8 3
-6 10 -46 28 -167 79 -79 33 -281 91 -347 99 -21 2 -43 8 -49 12 -6 4 -30 8
-53 10 -22 2 -59 6 -81 9 -46 7 -401 16 -406 10z"/>
</g>
</svg>
